PathFileType	3	(X/Y/Z)	D:\Vicon Setup\UG\Test1\New Session\NewSession16.trc
DataRate	CameraRate	NumFrames	NumMarkers	Units	OrigDataRate	OrigDataStartFrame	OrigNumFrames
100.0	100.0	14	27	mm	100.0	594	357	
Frame#	Time	Sternum			LShoulder			RShoulder			LASIS			RASIS			RPSIS			LPSIS			RKneeLateral			RKneeMedial			RFibulaHead			RMidShank			RAnkleLateral			RAnkleMedial			RHeel			RMT5			RMT2			RToe			LKneeLateral			LKneeMedial			LFibulaHead			LMidShank			LAnkleLateral			LAnkleMedial			LHeel			LMT5			LMT2			LToe			
		X1	Y1	Z1	X2	Y2	Z2	X3	Y3	Z3	X4	Y4	Z4	X5	Y5	Z5	X6	Y6	Z6	X7	Y7	Z7	X8	Y8	Z8	X9	Y9	Z9	X10	Y10	Z10	X11	Y11	Z11	X12	Y12	Z12	X13	Y13	Z13	X14	Y14	Z14	X15	Y15	Z15	X16	Y16	Z16	X17	Y17	Z17	X18	Y18	Z18	X19	Y19	Z19	X20	Y20	Z20	X21	Y21	Z21	X22	Y22	Z22	X23	Y23	Z23	X24	Y24	Z24	X25	Y25	Z25	X26	Y26	Z26	X27	Y27	Z27	
594	5.93	-209.33678	1375.6298	432.34354	6.64747	1443.092	425.09912	-333.89374	1425.6423	274.77225	-73.353912	1000.1397	420.26038	-309.71649	1016.4186	315.54688	-174.71509	1029.5758	185.05132	-56.428551	1032.059	236.31079	-355.93512	538.80261	287.98767	-238.32892	506.37473	348.65509	-368.77356	457.53885	289.05371	-302.61713	287.33542	321.20325	-294.798	123.61347	311.88135	-363.30252	92.931961	251.14331	-296.32037	59.484638	193.69495	-427.64291	40.868435	395.76517	-364.81769	72.269806	410.14615	-372.25916	61.994446	452.42914	-34.621262	517.63495	399.22894	-161.4868	497.86273	365.52884	-24.042387	454.15964	390.8295	-107.97452	298.09015	389.43735	-30.595259	97.551193	354.73853	-121.7837	116.56982	361.8082	-59.573357	61.42017	267.0621	-30.580305	40.197933	495.01987	-100.96319	64.175133	489.08121	-119.86912	50.388798	526.58606
595	5.94	-209.75262	1375.6638	433.67316	5.9034023	1442.8447	429.07266	-332.19003	1426.2188	274.95245	-73.352036	1000.2333	421.76187	-309.52899	1017.4067	314.99448	-172.39742	1030.5328	185.71632	-54.739689	1032.5514	238.22632	-354.34927	539.30804	284.87976	-237.87488	507.33109	346.34625	-367.33536	458.13434	285.62152	-302.21194	288.37897	319.92456	-295.37531	123.70427	311.78506	-362.11774	93.082581	249.6974	-293.5603	59.28413	194.60352	-430.27191	42.420227	392.23044	-368.18515	73.335793	408.02014	-376.84854	64.516045	450.13605	-33.332279	516.92731	399.22876	-161.18552	497.78152	365.33975	-24.408297	454.07953	390.14441	-109.43883	298.37061	389.74429	-30.418114	97.493256	354.73465	-121.62476	116.16869	361.81943	-59.49641	61.397224	267.07782	-31.018641	40.027203	495.08774	-100.86188	63.854427	488.97006	-119.75819	50.188698	526.77734
596	5.95	-209.24301	1375.6317	435.17416	5.9848709	1442.9436	432.92752	-330.61038	1426.726	275.07681	-74.98938	999.09296	422.77817	-308.91769	1018.1953	313.91379	-170.13794	1031.4589	186.38875	-53.013161	1032.9767	240.1826	-353.3815	540.09528	281.43265	-237.47452	508.04221	344.44531	-366.17334	458.88651	281.8486	-304.4751	289.64679	320.12756	-296.06946	124.13821	312.07944	-360.7897	93.415695	247.79205	-290.03372	59.064186	195.78607	-434.76294	43.808422	387.59448	-372.55923	74.619728	405.67163	-383.02209	66.124031	447.36694	-33.850395	517.33978	399.15002	-160.78427	497.79425	364.97449	-24.266323	453.81335	390.45505	-109.04634	298.52505	390.09875	-30.685593	97.355133	354.75943	-121.62035	116.29646	361.60416	-59.461098	61.393009	267.11981	-31.289141	40.233479	495.03677	-100.98991	64.007324	488.9917	-119.92547	50.028427	526.66663
597	5.96	-210.51332	1375.6278	436.40536	5.7856183	1443.2229	436.77289	-329.37357	1427.323	274.93723	-73.526131	999.67438	425.97488	-308.13141	1018.7869	312.92804	-167.86615	1032.3837	187.06676	-51.319214	1033.4061	242.1226	-352.43124	540.80231	277.89429	-236.90186	508.7561	342.39697	-364.97052	459.56311	277.9581	-303.69385	289.87955	318.04047	-297.07941	124.76009	312.70166	-359.02979	93.580338	245.56491	-285.70621	58.78001	197.14191	-439.0473	45.532715	381.72382	-377.70193	75.832634	402.6398	-390.06464	67.796532	443.70282	-33.34621	517.06775	399.0047	-160.425	497.73096	364.58514	-23.889568	453.78705	390.86014	-108.52155	298.41803	389.94418	-30.449471	97.206764	355.35617	-121.84285	116.24643	361.54666	-59.48415	61.473907	267.1824	-31.082115	40.253548	495.10632	-100.83704	63.307068	489.25543	-120.17539	49.942234	526.73315
598	5.97	-210.86801	1375.6873	437.49283	5.1257038	1443.3239	440.37128	-327.79468	1427.6744	274.9259	-74.188103	999.45227	427.11545	-305.64282	1018.5678	311.82404	-165.66893	1033.28	187.68243	-49.784256	1033.7863	244.07433	-351.39386	541.40192	274.32483	-237.61893	509.31967	341.73901	-363.80624	460.22098	273.81558	-304.21191	290.85815	317.01126	-298.15955	124.68655	312.79276	-356.90018	93.811775	243.17375	-280.95944	58.619198	198.46808	-443.86664	47.215691	374.63205	-383.8157	77.754936	398.37994	-398.63333	70.2173	438.66309	-33.471638	517.04474	399.20157	-160.66919	497.65198	364.12753	-24.135654	454.04544	391.12546	-108.447	298.43484	389.02737	-30.26399	97.662697	355.0321	-121.94035	116.30318	361.54794	-59.555374	61.587002	267.21994	-31.269417	40.131947	495.25919	-100.98632	63.163132	489.41794	-120.60706	50.023785	526.94574
599	5.98	-211.4921	1375.6879	438.52298	3.4835224	1443.2992	443.93747	-326.47415	1427.9606	274.75735	-74.202278	999.40936	429.11145	-306.19312	1019.6576	311.15063	-163.6095	1034.3129	187.61475	-48.358994	1034.2048	246.12814	-350.46207	542.04871	270.67877	-238.3219	509.73172	340.75198	-362.6264	460.79633	269.37067	-304.97858	291.57495	315.64703	-299.50317	124.88696	312.69684	-354.10382	93.876854	240.09499	-275.97705	58.514263	199.71956	-448.76233	49.066872	366.15689	-389.82568	78.750305	393.55377	-406.85086	71.946587	432.32367	-34.017292	517.37671	400.36655	-160.76923	497.72528	363.67926	-23.986277	453.82553	391.2467	-108.5524	298.134	389.42429	-30.317614	97.767204	355.18277	-122.29612	116.17707	362.04803	-59.625698	61.675117	267.25006	-31.271275	40.208546	495.26981	-101.41975	62.645897	489.46069	-120.59469	49.614014	527.09412
600	5.99	-212.38086	1375.8173	439.41278	2.9988105	1443.6771	447.3006	-325.38171	1428.2206	274.39938	-74.880684	999.55804	430.49771	-305.66217	1020.2135	310.18753	-161.6566	1035.3278	187.50209	-47.062115	1034.6085	248.10013	-349.55179	542.58325	267.01364	-239.72552	510.34396	340.42325	-360.95078	461.08389	264.86349	-305.91122	292.07663	313.89319	-301.11295	125.63229	312.37155	-351.23022	94.282066	236.33928	-270.78552	57.996498	201.37518	-453.24347	50.37867	357.03821	-395.42462	79.946381	387.57898	-415.62103	73.571045	425.27615	-33.893475	516.72229	402.32721	-160.82253	497.85614	363.27545	-24.337532	453.76773	392.07532	-108.8069	298.2182	389.27921	-30.230764	98.071854	355.18872	-122.21997	116.11407	361.82397	-59.680645	61.789413	267.25403	-31.231695	40.069393	495.35458	-101.10711	62.456398	489.72552	-120.26718	48.694767	527.29919
601	6	-213.30486	1375.8927	440.12219	1.7358476	1444.0314	450.54596	-324.62192	1428.5743	273.77472	-76.020309	999.57098	432.15189	-304.63901	1020.5906	309.04681	-159.82195	1035.7959	189.46254	-45.84148	1035.0109	250.22557	-348.7337	543.06805	263.26605	-240.83391	510.42575	340.82483	-359.76196	461.67508	260.01566	-306.32495	292.2298	310.92255	-302.15936	126.08464	311.24738	-348.15833	94.720078	232.22197	-265.66299	58.182011	202.08446	-457.01868	51.805439	346.7706	-401.48923	80.865486	380.66946	-423.53122	75.171555	417.24051	-33.721519	516.79871	401.40018	-160.65855	497.94922	363.19922	-24.848228	453.70236	392.33646	-109.19675	298.47516	390.04059	-30.527308	97.903023	355.26874	-122.31696	116.25507	361.87427	-59.733864	61.869526	267.25385	-31.508501	40.165947	495.32352	-101.74188	62.52306	489.60526	-120.50423	48.812889	527.31628
602	6.01	-214.64748	1376.0052	440.73758	-0.12884253	1444.5814	453.92621	-323.39932	1428.5732	273.22824	-77.811996	998.75732	433.08453	-304.12155	1020.7772	308.19992	-157.93956	1036.5819	190.13177	-44.716682	1035.473	252.3486	-347.98248	543.50671	259.52338	-242.87836	510.7146	340.92206	-358.35715	462.0621	255.34726	-308.4339	293.32318	310.1983	-303.37671	126.69918	309.54333	-344.78055	95.035645	227.92201	-260.3194	58.21637	202.97675	-460.22098	52.768875	335.86353	-407.15036	82.010391	372.98843	-431.19202	76.124886	407.74039	-34.112095	516.80994	401.54346	-160.64641	498.35037	362.3978	-24.623882	453.70569	392.95959	-109.09541	298.405	390.06134	-30.671375	98.009827	355.54141	-122.36543	115.92141	362.27759	-59.755848	61.969685	267.23825	-31.649691	40.276726	495.44049	-102.3883	62.827042	489.67905	-120.70261	48.665611	527.44806
603	6.02	-215.6501	1375.8322	441.13434	-0.76392156	1444.6252	457.08148	-322.50778	1428.6626	272.3255	-77.452438	998.22803	436.47147	-303.46191	1021.258	306.97235	-155.99702	1037.3074	190.94829	-43.671162	1035.8715	254.56178	-347.47125	544.02094	255.73325	-244.95058	510.83337	340.78384	-357.12119	462.4903	250.67583	-309.81784	294.27707	308.60336	-304.73734	127.33659	307.69055	-341.15555	95.383003	223.40164	-255.64688	59.081097	203.01128	-462.98099	53.57526	324.54001	-411.83591	82.766716	364.55905	-437.97043	76.71563	397.64752	-34.108486	516.74707	402.5206	-160.3056	498.10022	362.3479	-25.54561	453.67465	393.15207	-109.40395	298.46481	390.06482	-31.098782	97.932388	355.4028	-122.58562	116.13125	362.01614	-59.815617	62.08065	267.25513	-31.743248	40.359783	495.43887	-102.05066	62.912018	489.69208	-120.66602	48.348701	527.54578
604	6.03	-216.75209	1375.9003	441.28336	-2.1443284	1444.7644	459.71332	-321.80481	1428.7933	271.19415	-79.406982	998.08777	437.98618	-303.00055	1021.4954	305.83914	-154.06087	1037.943	191.68817	-42.615211	1036.2802	256.7962	-346.64194	544.17633	252.30914	-249.25902	512.36133	342.41812	-355.85883	462.8237	246.18306	-312.67349	296.27444	306.70096	-305.05225	127.72327	305.03781	-337.41183	96.036568	218.84377	-250.23807	59.311867	203.32819	-464.0979	53.529503	313.22385	-415.38446	82.729927	355.8783	-443.66476	77.30706	387.5502	-34.267715	516.72192	403.15228	-160.66714	498.16766	362.41617	-25.268202	453.94421	393.12637	-109.00354	298.21426	390.09338	-30.780613	98.205681	355.47351	-122.742	116.11108	362.01749	-59.854275	62.152172	267.28723	-31.510635	40.272476	495.40683	-102.1515	62.298168	489.95139	-120.54937	48.126141	527.68231
605	6.04	-218.18196	1376.0474	441.27399	-3.7650015	1445.3639	462.21149	-321.21777	1428.8252	269.75827	-81.346069	998.16345	440.20795	-302.58688	1021.652	304.63028	-152.11203	1038.379	192.55415	-41.537251	1036.6443	259.08167	-345.78583	544.32507	249.01385	-251.58206	512.12201	342.36938	-353.94748	463.25418	241.86606	-310.36652	293.82025	302.19061	-304.95605	127.98006	302.18356	-333.78027	96.882164	214.11484	-246.0284	60.436417	202.55856	-464.67261	53.796238	302.02802	-418.07376	82.636154	347.07416	-447.48691	76.744629	377.07965	-34.368298	516.72656	403.37076	-160.69795	498.36325	361.88931	-24.963253	454.09143	393.30649	-109.92428	298.68314	390.06137	-30.965401	98.172836	355.48846	-122.76413	116.09875	362.01514	-59.856964	62.209602	267.33136	-31.738688	40.379868	495.4501	-101.89256	62.130573	490.01721	-120.6566	47.995686	527.60864
606	6.05	-220.082	1376.3422	441.16599	-6.2535262	1445.2542	464.96011	-320.22699	1428.6692	268.44354	-84.855774	999.11731	443.48737	-302.26645	1021.8646	303.34601	-149.94887	1039.1261	192.33093	-40.567764	1036.9905	261.38995	-344.99493	544.59668	245.54666	-254.19516	511.77347	342.17545	-352.8674	463.68042	237.75294	-310.8468	294.37906	298.69836	-306.034	128.58749	298.77792	-330.08002	97.865288	209.25839	-241.86948	61.660889	201.14105	-464.55032	53.981255	291.00537	-420.20633	82.110847	338.67758	-450.98456	75.850327	367.40948	-34.832909	517.09723	404.25195	-160.53827	498.3808	361.0907	-25.208496	454.16608	393.44531	-108.86143	299.10867	389.66763	-31.386341	97.922539	355.74139	-122.70926	116.07755	361.85663	-59.822273	62.223396	267.37057	-31.648199	40.111195	495.53583	-102.12936	62.065281	489.96512	-120.5667	47.913723	527.72461
607	6.06	-221.93179	1376.4081	440.96933	-8.15411	1445.5695	467.26593	-319.60791	1428.6664	266.7894	-84.133987	997.10797	442.76248	-302.10318	1022.1118	301.99713	-148.0359	1039.4246	193.28503	-39.605495	1037.2522	263.80673	-344.16403	544.9115	242.3093	-257.78354	512.30762	342.50519	-351.78607	464.07104	233.94649	-311.18137	294.68878	295.34979	-305.45602	128.56139	294.9299	-326.41904	98.883102	204.13889	-237.56227	62.94796	199.32527	-464.30173	54.265507	280.20795	-421.7674	82.265495	329.68054	-452.97699	74.754654	357.14606	-35.160728	517.16071	404.56018	-160.52068	498.47336	360.39661	-25.488411	454.32568	393.19769	-109.72622	299.33389	389.86942	-30.647066	97.831413	356.26791	-122.7561	116.0976	361.74582	-59.762531	62.219303	267.40808	-31.564041	40.186428	495.50049	-102.13969	61.947628	490.03879	-120.47417	47.781193	527.76178
